<svg data-v-29081953="" xmlns="http://www.w3.org/2000/svg" viewBox="0 0 300 300"><!----><defs data-v-29081953=""><linearGradient data-v-29081953="" gradientTransform="rotate(25)" id="947d5984-469a-4113-8ba8-faf8dae4cec2" x1="0%" y1="0%" x2="100%" y2="0%"><stop data-v-29081953="" offset="0%" stop-color="#08C7D6" stop-opacity="1"></stop><stop data-v-29081953="" offset="100%" stop-color="#02023E" stop-opacity="1"></stop></linearGradient></defs><rect data-v-29081953="" fill="url(#947d5984-469a-4113-8ba8-faf8dae4cec2)" x="0" y="0" width="300px" height="300px" class="logo-background-square"></rect><defs data-v-29081953=""><!----></defs><g data-v-29081953="" id="7a262a52-00d7-44df-a333-22d0d3f284d9" fill="#ffffff" transform="matrix(2.4243897073961884,0,0,2.4243897073961884,18.836292894208295,148.72063035679852)"><path d="M0.48 9.17C0.48 11.98 2.70 14.15 5.57 14.15C6.96 14.15 8.37 13.52 9.37 12.54L8.39 11.45C7.64 12.17 6.64 12.61 5.66 12.61C3.70 12.61 2.16 11.09 2.16 9.16C2.16 7.22 3.70 5.71 5.66 5.71C6.65 5.71 7.67 6.19 8.39 6.96L9.35 5.75C8.40 4.82 7.01 4.24 5.63 4.24C2.73 4.24 0.48 6.38 0.48 9.17ZM10.81 4.51C10.81 5.07 11.21 5.47 11.75 5.47C12.28 5.47 12.68 5.07 12.68 4.51C12.68 3.93 12.28 3.53 11.75 3.53C11.21 3.53 10.81 3.93 10.81 4.51ZM10.95 14.08L12.54 14.08L12.54 6.64L10.95 6.64ZM14.99 14.08L16.60 14.08L16.60 12.80C17.15 13.66 18.05 14.14 19.24 14.14C21.36 14.14 22.76 12.61 22.76 10.39C22.76 8.12 21.32 6.58 19.21 6.58C18.05 6.58 17.15 7.06 16.60 7.92L16.60 3.70L14.99 3.70ZM16.60 10.33C16.60 8.93 17.54 7.92 18.87 7.92C20.20 7.92 21.14 8.95 21.14 10.33C21.14 11.76 20.20 12.77 18.87 12.77C17.54 12.77 16.60 11.77 16.60 10.33ZM23.74 10.37C23.74 12.61 25.26 14.14 27.55 14.14C28.84 14.14 29.90 13.68 30.63 12.88L29.78 11.97C29.23 12.53 28.49 12.84 27.68 12.84C26.50 12.84 25.62 12.12 25.37 10.98L31.00 10.98C31.19 8.29 30.13 6.58 27.51 6.58C25.30 6.59 23.74 8.12 23.74 10.37ZM25.34 9.80C25.52 8.61 26.35 7.87 27.52 7.87C28.74 7.87 29.54 8.60 29.60 9.80ZM32.68 14.08L34.29 14.08L34.29 10.19C34.41 8.92 35.36 8.04 36.86 8.12L36.86 6.58C35.69 6.58 34.79 7.11 34.29 8.12L34.29 6.64L32.68 6.64ZM38.29 14.08L39.84 14.08L39.84 6.76L42.94 13.06L44.02 13.06L47.11 6.76L47.12 14.08L48.65 14.08L48.65 4.28L46.70 4.28L43.48 10.79L40.25 4.28L38.29 4.28ZM50.90 11.27C50.90 13.05 51.93 14.14 53.63 14.14C54.85 14.13 55.79 13.66 56.29 12.63L56.29 14.08L57.90 14.08L57.90 6.64L56.29 6.64L56.29 10.30C56.29 11.61 55.54 12.60 54.25 12.63C53.17 12.63 52.51 11.94 52.51 10.82L52.51 6.64L50.90 6.64ZM59.39 13.10C60.13 13.78 61.29 14.14 62.38 14.14C63.88 14.14 65.24 13.45 65.24 11.93C65.25 9.23 61.29 9.97 61.29 8.60C61.29 8.06 61.75 7.85 62.38 7.85C63.04 7.85 63.87 8.11 64.53 8.51L65.11 7.32C64.44 6.85 63.45 6.57 62.51 6.57C61.08 6.57 59.77 7.21 59.77 8.72C59.75 11.41 63.67 10.56 63.67 12.08C63.67 12.64 63.14 12.88 62.45 12.88C61.64 12.88 60.61 12.53 59.96 11.96ZM66.72 4.51C66.72 5.07 67.13 5.47 67.66 5.47C68.19 5.47 68.60 5.07 68.60 4.51C68.60 3.93 68.19 3.53 67.66 3.53C67.13 3.53 66.72 3.93 66.72 4.51ZM66.86 14.08L68.46 14.08L68.46 6.64L66.86 6.64ZM70.14 10.37C70.14 12.61 71.68 14.14 73.89 14.14C75.31 14.14 76.38 13.64 77.06 12.75L76.16 11.86C75.66 12.45 74.90 12.75 73.96 12.75C72.67 12.75 71.75 11.79 71.75 10.37C71.75 8.96 72.67 7.99 73.96 7.99C74.86 7.98 75.57 8.30 76.09 8.83L76.97 7.80C76.29 7.01 75.24 6.58 73.89 6.58C71.68 6.58 70.14 8.12 70.14 10.37ZM82.45 14.08L88.34 14.08L88.34 12.59L84.10 12.59L84.10 4.28L82.45 4.28ZM89.68 4.51C89.68 5.07 90.09 5.47 90.62 5.47C91.15 5.47 91.56 5.07 91.56 4.51C91.56 3.93 91.15 3.53 90.62 3.53C90.09 3.53 89.68 3.93 89.68 4.51ZM89.82 14.08L91.42 14.08L91.42 6.64L89.82 6.64ZM92.62 6.64L95.51 14.08L97.17 14.08L100.03 6.64L98.42 6.64L96.38 12.50L94.30 6.64ZM100.45 10.37C100.45 12.61 101.96 14.14 104.26 14.14C105.55 14.14 106.61 13.68 107.34 12.88L106.48 11.97C105.94 12.53 105.20 12.84 104.38 12.84C103.21 12.84 102.33 12.12 102.07 10.98L107.70 10.98C107.90 8.29 106.83 6.58 104.22 6.58C102.00 6.59 100.45 8.12 100.45 10.37ZM102.05 9.80C102.23 8.61 103.05 7.87 104.23 7.87C105.45 7.87 106.25 8.60 106.30 9.80Z"></path></g><defs data-v-29081953=""><!----></defs><g data-v-29081953="" id="31a2a52e-c751-4c0e-970d-27e05b3796c2" stroke="none" fill="#ffffff" transform="matrix(1.4603619423722944,0,0,1.4603619423722944,113.50263314128671,84.74588611320776)"><path d="M39.439 37.342H11.181V9.083H39.44v28.259h-.001zm-25.967-2.29h23.676V11.375H13.472v23.677zM7.33 13.834h2.292v18.521H7.33zM40.743 13.953h2.292v18.521h-2.292zM3.32 13.834h2.291v18.521H3.32zM44.374 13.953h2.29v18.521h-2.29z"></path><path d="M19.274 31.989c-2.085 0-3.781-1.793-3.781-3.993 0-2.202 1.696-3.995 3.781-3.995s3.784 1.793 3.784 3.995c0 2.2-1.699 3.993-3.784 3.993zm0-5.699c-.821 0-1.49.764-1.49 1.703s.669 1.702 1.49 1.702 1.493-.763 1.493-1.702-.672-1.703-1.493-1.703zM29.436 31.989c-2.086 0-3.78-1.793-3.78-3.993 0-2.202 1.694-3.995 3.78-3.995 2.085 0 3.783 1.793 3.783 3.995 0 2.2-1.698 3.993-3.783 3.993zm0-5.699c-.818 0-1.488.764-1.488 1.703s.67 1.702 1.488 1.702c.823 0 1.492-.763 1.492-1.702s-.669-1.703-1.492-1.703z"></path><path d="M33.188 27.6h-2.292v-8.344l-7.838 2.076V27.6h-2.291v-8.031l12.421-3.292z"></path><path d="M33.188 24.688h-2.292v-8.346l-7.838 2.079v6.267h-2.291v-8.032l12.421-3.289z"></path></g><defs data-v-29081953=""><!----></defs><g data-v-29081953="" id="521f6405-c8d9-4022-bdd8-355f18fa1ded" fill="#ffffff" transform="matrix(0.878813829088221,0,0,0.878813829088221,51.33117756959808,188.03408197128013)"><path d="M1.33 15.68L1.33 5.88L7.35 5.88L7.35 6.97L2.51 6.97L2.51 10.22L7.27 10.22L7.27 11.31L2.51 11.31L2.51 15.68L1.33 15.68ZM16.88 15.68L16.88 5.88L22.82 5.88L22.82 6.97L18.06 6.97L18.06 10.22L22.74 10.22L22.74 11.31L18.06 11.31L18.06 14.59L22.90 14.59L22.90 15.68L16.88 15.68ZM32.45 15.68L32.45 5.88L38.39 5.88L38.39 6.97L33.63 6.97L33.63 10.22L38.30 10.22L38.30 11.31L33.63 11.31L33.63 14.59L38.47 14.59L38.47 15.68L32.45 15.68ZM47.92 15.68L47.92 5.88L49.10 5.88L49.10 14.59L54.22 14.59L54.22 15.68L47.92 15.68ZM78.68 6.97L78.68 5.88L85.57 5.88L85.57 6.97L82.71 6.97L82.71 15.68L81.54 15.68L81.54 6.97L78.68 6.97ZM94.43 15.68L94.43 5.88L95.61 5.88L95.61 10.22L99.78 10.22L99.78 5.88L100.95 5.88L100.95 15.68L99.78 15.68L99.78 11.31L95.61 11.31L95.61 15.68L94.43 15.68ZM110.29 15.68L110.29 5.88L116.23 5.88L116.23 6.97L111.47 6.97L111.47 10.22L116.14 10.22L116.14 11.31L111.47 11.31L111.47 14.59L116.31 14.59L116.31 15.68L110.29 15.68ZM146.71 9.21L146.71 8.71L146.71 8.71Q146.71 8.23 146.52 7.87L146.52 7.87L146.52 7.87Q146.33 7.50 146.01 7.27L146.01 7.27L146.01 7.27Q145.68 7.03 145.26 6.90L145.26 6.90L145.26 6.90Q144.84 6.78 144.38 6.78L144.38 6.78L144.38 6.78Q143.98 6.78 143.61 6.88L143.61 6.88L143.61 6.88Q143.25 6.99 142.96 7.18L142.96 7.18L142.96 7.18Q142.67 7.38 142.51 7.66L142.51 7.66L142.51 7.66Q142.34 7.95 142.34 8.33L142.34 8.33L142.34 8.41L142.34 8.41Q142.34 8.82 142.51 9.11L142.51 9.11L142.51 9.11Q142.67 9.39 143.00 9.60L143.00 9.60L143.00 9.60Q143.33 9.80 143.82 9.93L143.82 9.93L143.82 9.93Q144.31 10.07 144.97 10.16L144.97 10.16L144.97 10.16Q146.51 10.40 147.24 11.07L147.24 11.07L147.24 11.07Q147.97 11.73 147.97 12.85L147.97 12.85L147.97 13.02L147.97 13.02Q147.97 13.65 147.75 14.17L147.75 14.17L147.75 14.17Q147.53 14.70 147.10 15.08L147.10 15.08L147.10 15.08Q146.68 15.46 146.05 15.67L146.05 15.67L146.05 15.67Q145.42 15.88 144.59 15.88L144.59 15.88L144.59 15.88Q143.65 15.88 142.93 15.60L142.93 15.60L142.93 15.60Q142.21 15.33 141.73 14.85L141.73 14.85L141.73 14.85Q141.25 14.36 140.99 13.71L140.99 13.71L140.99 13.71Q140.74 13.06 140.74 12.29L140.74 12.29L140.74 11.87L141.92 11.87L141.92 12.21L141.92 12.21Q141.92 13.50 142.63 14.14L142.63 14.14L142.63 14.14Q143.33 14.78 144.59 14.78L144.59 14.78L144.59 14.78Q145.68 14.78 146.24 14.30L146.24 14.30L146.24 14.30Q146.79 13.82 146.79 13.02L146.79 13.02L146.79 12.94L146.79 12.94Q146.79 12.17 146.22 11.76L146.22 11.76L146.22 11.76Q145.66 11.35 144.38 11.17L144.38 11.17L144.38 11.17Q143.64 11.07 143.04 10.87L143.04 10.87L143.04 10.87Q142.45 10.67 142.03 10.34L142.03 10.34L142.03 10.34Q141.61 10.01 141.39 9.55L141.39 9.55L141.39 9.55Q141.16 9.09 141.16 8.46L141.16 8.46L141.16 8.29L141.16 8.29Q141.16 7.71 141.40 7.24L141.40 7.24L141.40 7.24Q141.64 6.76 142.06 6.41L142.06 6.41L142.06 6.41Q142.49 6.06 143.09 5.87L143.09 5.87L143.09 5.87Q143.68 5.68 144.40 5.68L144.40 5.68L144.40 5.68Q145.22 5.68 145.87 5.92L145.87 5.92L145.87 5.92Q146.52 6.16 146.97 6.56L146.97 6.56L146.97 6.56Q147.42 6.96 147.65 7.50L147.65 7.50L147.65 7.50Q147.88 8.04 147.88 8.62L147.88 8.62L147.88 9.21L146.71 9.21ZM164.09 5.88L163.10 15.68L160.96 15.68L160.05 6.38L159.88 6.38L158.97 15.68L156.83 15.68L155.83 5.88L156.90 5.88L157.84 15.18L158.00 15.18L158.89 5.88L161.04 5.88L161.92 15.18L162.09 15.18L163.03 5.88L164.09 5.88ZM172.42 6.97L172.42 5.88L178.64 5.88L178.64 6.97L176.12 6.97L176.12 14.59L178.64 14.59L178.64 15.68L172.42 15.68L172.42 14.59L174.94 14.59L174.94 6.97L172.42 6.97ZM190.19 5.88L193.02 15.18L193.19 15.18L193.19 5.88L194.36 5.88L194.36 15.68L192.01 15.68L189.18 6.38L189.01 6.38L189.01 15.68L187.84 15.68L187.84 5.88L190.19 5.88ZM205.73 12.07L205.73 10.98L210.10 10.98L210.10 15.68L209.01 15.68L209.01 14.50L208.84 14.50L208.84 14.50Q208.60 15.12 208.00 15.50L208.00 15.50L208.00 15.50Q207.40 15.88 206.60 15.88L206.60 15.88L206.60 15.88Q205.02 15.88 204.11 14.85L204.11 14.85L204.11 14.85Q203.21 13.83 203.21 11.87L203.21 11.87L203.21 9.69L203.21 9.69Q203.21 7.78 204.12 6.73L204.12 6.73L204.12 6.73Q205.03 5.68 206.65 5.68L206.65 5.68L206.65 5.68Q207.49 5.68 208.14 5.96L208.14 5.96L208.14 5.96Q208.78 6.23 209.22 6.71L209.22 6.71L209.22 6.71Q209.65 7.20 209.87 7.85L209.87 7.85L209.87 7.85Q210.10 8.50 210.10 9.24L210.10 9.24L210.10 9.41L208.92 9.41L208.92 9.24L208.92 9.24Q208.92 8.76 208.79 8.32L208.79 8.32L208.79 8.32Q208.66 7.87 208.38 7.53L208.38 7.53L208.38 7.53Q208.11 7.18 207.68 6.98L207.68 6.98L207.68 6.98Q207.26 6.78 206.65 6.78L206.65 6.78L206.65 6.78Q205.52 6.78 204.95 7.60L204.95 7.60L204.95 7.60Q204.39 8.43 204.39 9.77L204.39 9.77L204.39 11.79L204.39 11.79Q204.39 13.23 204.95 14.01L204.95 14.01L204.95 14.01Q205.52 14.78 206.68 14.78L206.68 14.78L206.68 14.78Q207.73 14.78 208.33 14.11L208.33 14.11L208.33 14.11Q208.92 13.44 208.92 12.24L208.92 12.24L208.92 12.07L205.73 12.07ZM221.26 14.90L221.26 14.90L221.26 14.90Q221.26 14.49 221.54 14.20L221.54 14.20L221.54 14.20Q221.83 13.92 222.24 13.92L222.24 13.92L222.24 13.92Q222.64 13.92 222.93 14.20L222.93 14.20L222.93 14.20Q223.22 14.49 223.22 14.90L223.22 14.90L223.22 14.90Q223.22 15.30 222.93 15.59L222.93 15.59L222.93 15.59Q222.64 15.88 222.24 15.88L222.24 15.88L222.24 15.88Q221.83 15.88 221.54 15.59L221.54 15.59L221.54 15.59Q221.26 15.30 221.26 14.90ZM221.68 5.88L222.80 5.88L222.80 13.08L221.68 13.08L221.68 5.88Z"></path></g></svg>