<svg data-v-29081953="" xmlns="http://www.w3.org/2000/svg" viewBox="0 0 300 300"><!----><defs data-v-29081953=""><linearGradient data-v-29081953="" gradientTransform="rotate(25)" id="c870f638-64e0-42e5-a1cb-6ee9fea59466" x1="0%" y1="0%" x2="100%" y2="0%"><stop data-v-29081953="" offset="0%" stop-color="#08C7D6" stop-opacity="1"></stop><stop data-v-29081953="" offset="100%" stop-color="#02023E" stop-opacity="1"></stop></linearGradient></defs><rect data-v-29081953="" fill="url(#c870f638-64e0-42e5-a1cb-6ee9fea59466)" x="0" y="0" width="300px" height="300px" class="logo-background-square"></rect><!----><defs data-v-29081953=""><!----></defs><g data-v-29081953="" id="41700de3-61b7-49ac-a06a-889b04166f6b" fill="#ffffff" stroke="none" transform="matrix(5.075673473051837,0,0,5.075673473051837,23.148764408305663,32.180921761921155)"><path d="M39.439 37.342H11.181V9.083H39.44v28.259h-.001zm-25.967-2.29h23.676V11.375H13.472v23.677zM7.33 13.834h2.292v18.521H7.33zM40.743 13.953h2.292v18.521h-2.292zM3.32 13.834h2.291v18.521H3.32zM44.374 13.953h2.29v18.521h-2.29z"></path><path d="M19.274 31.989c-2.085 0-3.781-1.793-3.781-3.993 0-2.202 1.696-3.995 3.781-3.995s3.784 1.793 3.784 3.995c0 2.2-1.699 3.993-3.784 3.993zm0-5.699c-.821 0-1.49.764-1.49 1.703s.669 1.702 1.49 1.702 1.493-.763 1.493-1.702-.672-1.703-1.493-1.703zM29.436 31.989c-2.086 0-3.78-1.793-3.78-3.993 0-2.202 1.694-3.995 3.78-3.995 2.085 0 3.783 1.793 3.783 3.995 0 2.2-1.698 3.993-3.783 3.993zm0-5.699c-.818 0-1.488.764-1.488 1.703s.67 1.702 1.488 1.702c.823 0 1.492-.763 1.492-1.702s-.669-1.703-1.492-1.703z"></path><path d="M33.188 27.6h-2.292v-8.344l-7.838 2.076V27.6h-2.291v-8.031l12.421-3.292z"></path><path d="M33.188 24.688h-2.292v-8.346l-7.838 2.079v6.267h-2.291v-8.032l12.421-3.289z"></path></g><!----></svg>