<svg data-v-d3f97b9e="" xmlns="http://www.w3.org/2000/svg" viewBox="0 0 92.02872922091035 60"><!----><!----><!----><!----><g data-v-d3f97b9e="" id="d3d8a733-f8d2-44a2-a8c0-ce546757a478" transform="matrix(2.1232171802965687,0,0,2.1232171802965687,-7.049081026327457,-19.285182037406408)" stroke="none" fill="white"><path d="M39.439 37.342H11.181V9.083H39.44v28.259h-.001zm-25.967-2.29h23.676V11.375H13.472v23.677zM7.33 13.834h2.292v18.521H7.33zM40.743 13.953h2.292v18.521h-2.292zM3.32 13.834h2.291v18.521H3.32zM44.374 13.953h2.29v18.521h-2.29z"></path><path d="M19.274 31.989c-2.085 0-3.781-1.793-3.781-3.993 0-2.202 1.696-3.995 3.781-3.995s3.784 1.793 3.784 3.995c0 2.2-1.699 3.993-3.784 3.993zm0-5.699c-.821 0-1.49.764-1.49 1.703s.669 1.702 1.49 1.702 1.493-.763 1.493-1.702-.672-1.703-1.493-1.703zM29.436 31.989c-2.086 0-3.78-1.793-3.78-3.993 0-2.202 1.694-3.995 3.78-3.995 2.085 0 3.783 1.793 3.783 3.995 0 2.2-1.698 3.993-3.783 3.993zm0-5.699c-.818 0-1.488.764-1.488 1.703s.67 1.702 1.488 1.702c.823 0 1.492-.763 1.492-1.702s-.669-1.703-1.492-1.703z"></path><path d="M33.188 27.6h-2.292v-8.344l-7.838 2.076V27.6h-2.291v-8.031l12.421-3.292z"></path><path d="M33.188 24.688h-2.292v-8.346l-7.838 2.079v6.267h-2.291v-8.032l12.421-3.289z"></path></g><!----></svg>